<svg version="1.1" id="Layer_2" x="0px" y="0px" viewBox="0 0 700 700" style="enable-background:new 0 0 3400 2000;" xmlns="http://www.w3.org/2000/svg">
  <defs></defs>
  <rect style="fill-opacity: 0; fill: none;" width="700" height="700"></rect>
  <g transform="matrix(1.001482, 0, 0, 1.002508, -199.801935, -609.078396)" style="transform-origin: 197.802px 618.258px;">
    <polygon style="fill: rgb(255, 107, 107);" points="309.351,866.905 299.651,1148.46 532.92,1240.019 543.099,944.56 	"></polygon>
    <polygon style="fill: rgb(225, 90, 90);" points="543.099,944.56 786.955,886.839 777.375,1164.918 532.92,1240.019 	"></polygon>
    <polygon style="fill: rgb(255, 107, 107);" points="299.841,864.589 543.099,944.56 546.225,853.834 302.802,778.66 	"></polygon>
    <path style="fill: rgb(225, 90, 90);" d="M546.225,853.834c2.704-0.688,252.686-53.64,252.686-53.64l-2.995,86.954L543.099,944.56
		L546.225,853.834z"></path>
    <polygon style="fill: rgb(255, 139, 139);" points="302.802,778.66 550.269,736.411 798.911,800.194 546.225,853.834 	"></polygon>
    <path style="fill: rgb(192, 81, 81);" d="M786.874,889.201L543.099,944.56l-0.69,20.019c0,0,150.269-34.974,191.861-36.473
		c41.593-1.5,51.105,4.58,51.105,4.58L786.874,889.201z"></path>
    <polygon style="fill: rgb(204, 85, 85);" points="309.351,866.905 543.099,944.56 542.409,964.579 309.15,872.743 	"></polygon>
    <polygon style="fill: rgb(107, 63, 160);" points="383.933,803.715 365.907,1174.466 423.384,1197.025 424.513,816.247 	"></polygon>
    <polygon style="fill: rgb(98, 58, 146);" points="656.768,830.227 649.491,1205.055 705.608,1187.244 700.89,819.177 	"></polygon>
    <polygon style="fill: rgb(119, 83, 163);" points="424.513,816.247 692.29,772.843 641.777,759.885 383.933,803.715 	"></polygon>
    <polygon style="fill: rgb(110, 78, 149);" points="658.453,830.01 431.359,756.712 473.587,749.503 702.675,819.368 	"></polygon>
    <g>
      <path style="fill: rgb(93, 55, 140);" d="M541.387,788.375c-4.793,0.969-9.749,0.481-14.606-0.075c-30.305-3.469-60.324-9.44-89.649-17.834
			c-13.603-3.893-27.372-8.47-38.504-17.204c-4.184-3.282-8.006-7.215-10.227-12.048c-2.221-4.833-2.663-10.675-0.255-15.417
			c3.81-7.504,13.106-10.123,21.426-11.397c12.736-1.95,25.778-2.562,38.491-0.461c11.667,1.928,22.828,6.093,33.903,10.235
			c6.604,2.47,13.245,4.956,19.338,8.504c5.425,3.159,10.342,7.117,15.074,11.244c8.518,7.43,16.51,15.462,23.899,24.015
			c2.918,3.378,8.31,7.987,9.693,12.32C551.623,785.437,545.693,787.504,541.387,788.375z"></path>
      <path style="fill: rgb(81, 47, 122);" d="M540.483,780.759c-1.605,0.948-3.621,0.71-5.456,0.381c-29.385-5.277-53.624-25.966-81.962-35.363
			c-15.668-5.196-32.314-6.842-48.093-11.691c-4.579-1.408-9.831-3.998-10.287-8.767c-0.386-4.029,2.99-7.411,6.426-9.551
			c12.082-7.528,27.382-7.506,41.448-5.318c30.65,4.768,59.781,18.88,82.521,39.974c4.606,4.273,9,8.928,12.246,14.34
			C539.133,767.773,545.011,778.086,540.483,780.759z"></path>
      <path style="fill: rgb(111, 76, 153);" d="M480.59,697.299c-9.1-7.062-18.708-13.74-29.556-17.613c-10.848-3.873-23.164-4.714-33.75-0.176
			c-9.176,3.933-16.397,11.629-21.149,20.409c-4.753,8.779-10.413,17.209-9.585,32.154c12.647-26.153,77.366-0.742,111.259,15.806
			c19.428,9.486,36.7,23.354,50.159,40.275c1.007,1.266,6.491-6.207,6.817-7.067c1.443-3.812-0.011-5.183-2.33-8.043
			c-5.288-6.524-9.988-13.53-15.259-20.086c-10.608-13.193-22.199-25.595-34.646-37.07
			C495.497,709.385,488.168,703.18,480.59,697.299z"></path>
    </g>
    <path style="opacity:0.31;fill:#FFFFFF;" d="M414.478,689.739c3.579-1.997,7.689-2.862,11.774-3.187
		c16.561-1.315,32.749,5.885,46.297,15.499c1.243,0.882,2.537,1.871,3.05,3.306c0.514,1.435-0.182,3.395-1.688,3.627
		c-0.827,0.128-1.631-0.276-2.374-0.661c-5.852-3.029-11.946-5.593-18.204-7.66c-6.065-2.003-12.839-3.505-18.699-0.962
		c-3.455,1.499-6.184,4.245-9.227,6.463c-3.043,2.218-6.838,3.986-10.491,3.072c-2.019-0.505-3.83-1.799-5.905-1.957
		c-1.625-0.123-7.784,2.913-8.763,1.808c-1.032-1.164,1.771-4.935,2.355-5.964C405.577,697.898,409.104,692.738,414.478,689.739z"></path>
    <path style="fill: rgb(110, 78, 149);" d="M473.153,833.582c-2.636,6.543-3.229,13.707-3.596,20.751c-0.852,16.334-0.643,32.725,0.622,49.032
		c4.282-5.438,8.564-10.877,12.847-16.315c9.03,12.815,19.167,26.412,34.157,30.999c-4.318-11.388-8.157-23.148-8.764-35.312
		c-0.606-12.164,2.331-24.905,10.248-34.161c4.168-4.872,9.503-8.577,14.741-12.275c10.089-7.125,20.082-14.469,28.95-23.066
		c4.359-4.226,8.72-9.528,8.177-15.575c-0.702-7.818-9.369-12.567-17.204-13.046c-6.828-0.417-13.744,1.424-19.551,5.016
		c-4.553,2.816-7.045,7.131-11.095,10.368c-5.455,4.36-13.072,5.409-19.485,7.736c-6.028,2.187-11.817,5.156-16.894,9.096
		C480.628,821.235,475.856,826.873,473.153,833.582z"></path>
    <path style="fill: rgb(110, 78, 149);" d="M592.701,800.476c20.68-0.984,41.17-4.466,61.833-5.763c20.663-1.298,41.914-0.308,61.172,7.292
		c5.603,2.211,11.035,4.995,15.682,8.829c15.589,12.863,19.763,35.469,16.903,55.477c5.887-9.435,11.775-18.871,17.662-28.307
		c4.357,8.811,7.704,18.122,9.954,27.691c7.195-12.84,8.577-28.797,3.694-42.683c-4.882-13.885-15.946-25.467-29.594-30.979
		c-5.857-2.365-12.087-3.643-18.283-4.873c-11.881-2.357-23.787-4.582-35.693-6.807c-19.664-3.674-39.349-7.352-59.231-9.557
		c-18.999-2.107-39.622-2.488-55.58,8.037c-4.565,3.011-6.455,11.606-4.701,16.688C578.675,801.761,587.301,800.733,592.701,800.476
		z"></path>
    <g>
      <path style="fill: rgb(93, 55, 140);" d="M579.278,790.483c4.807,0.896,9.754,0.333,14.604-0.297c30.249-3.929,60.173-10.356,89.367-19.195
			c13.542-4.1,27.24-8.886,38.238-17.788c4.134-3.346,7.895-7.337,10.042-12.202c2.147-4.866,2.5-10.714,0.021-15.419
			c-3.923-7.446-13.259-9.923-21.596-11.07c-12.765-1.756-25.815-2.169-38.494,0.125c-11.636,2.105-22.732,6.44-33.743,10.75
			c-6.566,2.57-13.167,5.157-19.206,8.797c-5.377,3.241-10.233,7.273-14.901,11.472c-8.404,7.558-16.273,15.711-23.532,24.375
			c-2.866,3.422-8.187,8.113-9.504,12.466C569,787.701,574.959,789.678,579.278,790.483z"></path>
      <path style="fill: rgb(81, 47, 122);" d="M580.066,782.854c1.62,0.923,3.631,0.655,5.461,0.298c29.301-5.724,53.223-26.779,81.414-36.606
			c15.586-5.433,32.207-7.333,47.909-12.421c4.558-1.477,9.769-4.147,10.152-8.922c0.324-4.035-3.102-7.365-6.57-9.453
			c-12.195-7.343-27.494-7.089-41.525-4.687c-30.573,5.234-59.486,19.787-81.903,41.225c-4.54,4.342-8.863,9.064-12.026,14.525
			C581.218,769.85,575.498,780.25,580.066,782.854z"></path>
      <path style="fill: rgb(111, 76, 153);" d="M638.683,698.493c8.991-7.2,18.497-14.023,29.284-18.061c10.788-4.038,23.089-5.066,33.744-0.689
			c9.234,3.793,16.572,11.379,21.458,20.084c4.886,8.706,10.673,17.049,10.073,32.005c-13.043-25.957-77.369,0.435-111.005,17.497
			c-19.282,9.78-36.341,23.91-49.541,41.033c-0.988,1.281-6.585-6.107-6.924-6.962c-1.5-3.79-0.067-5.182,2.208-8.078
			c5.188-6.604,9.781-13.681,14.952-20.316c10.406-13.353,21.808-25.931,34.078-37.593
			C623.962,710.804,631.194,704.488,638.683,698.493z"></path>
    </g>
    <path style="opacity:0.31;fill:#FFFFFF;" d="M678.179,685.775c0.396,2.556,3.019,4.045,5.335,5.196
		c7.652,3.803,15.77,8.764,18.229,16.947c0.61,2.03,0.876,4.266,2.223,5.904c1.607,1.955,4.309,2.534,6.797,2.993
		c2.731,0.504,5.463,1.007,8.195,1.511c1.396,0.257,3.078,0.421,4.002-0.656c0.501-0.585,0.631-1.397,0.667-2.167
		c0.248-5.199-2.768-9.94-5.833-14.146c-2.435-3.34-4.977-6.602-7.623-9.777c-2.705-3.246-5.66-6.506-9.565-8.121
		c-4.981-2.059-9.994-0.663-15.112-1.324C682.788,681.784,677.39,680.697,678.179,685.775z"></path>
    <g>
      <path style="fill: rgb(132, 79, 196);" d="M539.982,758.034c-3.813,2.639-6.907,6.46-8.149,10.927c-0.652,2.343-0.787,4.799-0.752,7.231
			c0.057,3.914,0.55,7.823,1.467,11.63c0.489,2.033,1.128,4.093,2.44,5.721c1.664,2.064,4.208,3.191,6.707,4.075
			c11.072,3.917,23.316,4.45,34.686,1.511c4.263-1.102,8.839-3.079,10.538-7.141c0.708-1.694,0.823-3.57,0.892-5.405
			c0.187-5.053,0.078-10.17-1.15-15.075c-1.228-4.905-3.654-9.623-7.496-12.91c-3.612-3.089-8.269-4.75-12.966-5.479
			C557.144,751.714,547.69,752.698,539.982,758.034z"></path>
      <path style="fill: rgb(107, 63, 160);" d="M586.701,771.508c-1.228-4.905-3.654-9.623-7.497-12.91c-0.777-0.664-1.604-1.259-2.468-1.796
			c1.162,2.127,2.028,4.431,2.616,6.781c1.228,4.905,1.337,10.021,1.15,15.075c-0.068,1.835-0.184,3.71-0.892,5.405
			c-1.698,4.062-6.274,6.039-10.538,7.141c-11.371,2.939-23.614,2.406-34.687-1.51c-0.485-0.172-0.971-0.357-1.453-0.552
			c0.454,1.585,1.066,3.126,2.094,4.402c1.663,2.064,4.207,3.191,6.706,4.075c11.072,3.917,23.316,4.45,34.687,1.511
			c4.263-1.102,8.839-3.079,10.538-7.141c0.708-1.694,0.824-3.57,0.892-5.405C588.038,781.53,587.929,776.414,586.701,771.508z"></path>
      <path style="opacity: 0.31; fill: rgb(255, 255, 255);" d="M540.896,763.507c-2.828,3.962-3.574,9.01-3.978,13.86
			c-0.09,1.085-0.164,2.203,0.171,3.239c0.708,2.189,3.087,3.448,5.374,3.699c1.248,0.137,2.592,0.016,3.605-0.724
			c2.233-1.632,1.684-5.003,1.96-7.755c0.482-4.819,4.611-9.023,9.42-9.592c1.485-0.175,3.006-0.042,4.464-0.372
			c1.458-0.331,2.924-1.294,3.217-2.76c0.962-4.813-8.046-5.654-11.193-5.562C549.144,757.681,543.758,759.495,540.896,763.507z"></path>
    </g>
  </g>
</svg>