<?xml version="1.0" encoding="utf-8"?>
<!-- Generator: Adobe Illustrator 27.5.0, SVG Export Plug-In . SVG Version: 6.00 Build 0)  -->
<svg version="1.1" xmlns="http://www.w3.org/2000/svg" xmlns:xlink="http://www.w3.org/1999/xlink" x="0px" y="0px"
	 viewBox="0 0 1100 800" style="enable-background:new 0 0 1100 800;" xml:space="preserve">
<!-- <g id="background">
	<rect style="fill:#F2F2F2;" width="1100" height="800"/>
</g> -->
<g id="object">
	<g>
		<g>
			<polygon style="fill:#EACDB0;" points="242.896,257.611 247.777,251.032 246.606,243.904 247.991,242.889 249.31,244.542 
				250.031,238.348 253.69,234.849 260.307,236.103 264.904,241.328 262.963,247.767 257.132,253.241 250.84,262.536 			"/>
			<path style="fill:#59595B;" d="M257.084,260.23c-3.786,7.675-7.481,15.395-11.357,23.024
				c-20.802,40.944-42.75,62.388-48.781,73.786c-0.262,0.495-0.579,1.036-1.118,1.186c-0.352,0.098-0.725,0.005-1.079-0.089
				c-1.889-0.502-3.773-1.024-5.652-1.564c-4.066-1.17-8.135-2.385-12.13-3.781c-3.734-1.305-8.332-4.552-7.357-8.043
				c0.602-2.155,37.238-41.315,38.506-43.148c4.851-7.017,9.701-14.035,14.552-21.052c7.201-10.418,14.402-20.835,21.603-31.253
				L257.084,260.23z"/>
		</g>
		<g>
			<g>
				<g>
					<path style="fill:#F9CD5F;" d="M290.701,118.269c0.29,2.161-0.778,4.226-1.925,6.011
						c-7.635,11.879-26.056,25.107-39.244,18.014c1.453-0.344,5.264-0.488,8.23-1.276c7.043-1.869,11.349-9.357,14.863-16.067
						c2.154-4.113,2.152-15.565,6.653-17.344C283.572,105.909,290.122,113.96,290.701,118.269z"/>
					<path style="fill:#FDE18D;" d="M250.771,126.704c2.844-6.881,5.891-11.346,9.933-16.381c4.042-5.035,9.687-8.975,15.959-9.343
						c0.745-0.044,1.518-0.032,2.209,0.283c0.789,0.359,1.382,1.072,1.946,1.761c3.117,3.81,8.985,8.817,9.756,14.333
						c-10.924-0.414-22.143,3.936-30.67,11.028c-6.366,5.294-9.851,14.558-10.555,14.586
						C242.654,143.233,249.433,129.942,250.771,126.704z"/>
				</g>
				<g>
					<path style="fill:#F9CD5F;" d="M202.899,132.045c0.313,2.158,1.906,3.851,3.499,5.253c10.599,9.332,31.939,17.006,42.679,6.569
						c-1.491,0.067-5.196,0.973-8.264,1.029c-7.285,0.132-13.479-5.888-18.697-11.378c-3.199-3.366-6.335-14.379-11.151-14.857
						C206.368,118.205,202.275,127.742,202.899,132.045z"/>
					<path style="fill:#FDE18D;" d="M243.611,129.215c-4.621-5.838-8.775-9.298-14.042-13.032
						c-5.267-3.734-11.776-5.976-17.908-4.611c-0.729,0.162-1.469,0.385-2.047,0.877c-0.66,0.562-1.035,1.409-1.389,2.227
						c-1.953,4.518-6.225,10.942-5.454,16.458c10.393-3.392,22.374-2.283,32.518,2.201c7.573,3.347,13.464,11.301,14.148,11.135
						C255.948,142.886,245.786,131.962,243.611,129.215z"/>
				</g>
			</g>
			<g>
				
					<rect x="193.883" y="142.982" transform="matrix(0.9904 -0.1384 0.1384 0.9904 -24.7775 37.5836)" style="fill:#558AB2;" width="128.132" height="108.069"/>
				
					<rect x="179.536" y="143.37" transform="matrix(0.9904 -0.1384 0.1384 0.9904 -19.297 36.4259)" style="fill:#6194C1;" width="145.65" height="27.29"/>
			</g>
			<g style="opacity:0.1;">
				<polygon points="196.204,178.638 317.699,161.665 319.045,171.305 				"/>
			</g>
			<path style="fill:#FDE18D;" d="M272.189,249.586l-15.705,2.194l-15.139-108.369c-0.153-1.099,0.581-2.109,1.639-2.257
				l11.871-1.658c1.059-0.148,2.042,0.623,2.195,1.721L272.189,249.586z"/>
		</g>
		<polygon style="fill:#F6A29F;" points="344.153,319.687 389.927,313.727 424.273,270.685 436.089,281.641 400.317,333.207 
			353.634,344.75 338.293,331.979 339.248,319.523 		"/>
		<path style="fill:#A1BDCC;" d="M744.063,284.944c-0.818-0.176-16.402,3.72-16.402,3.72l-40.259,30.519h-55.194l-2.597,15.584
			l66.882,12.987L744.063,284.944z"/>
		<g>
			<g>
				<polygon style="fill:#8C9498;" points="661.685,438.172 650.944,537.763 657.37,668.119 671.817,669.509 692.348,551.772 
					723.523,435.058 				"/>
			</g>
			<polygon style="fill:#3A3029;" points="773.211,669.797 762.21,681.929 766.111,687.713 788.356,679.776 786.822,668.021 			"/>
			<polygon style="fill:#8C9498;" points="720.061,482.773 742.906,577.679 768.996,671.846 788.231,668.4 774.538,568.967 
				774.143,475.137 745.116,465.962 			"/>
			<path style="fill:#A1BDCC;" d="M746.968,283.651c-0.003,0.001-27.264,9.58-54.729,55.975
				c-27.968,47.245-42.72,115.342-42.72,115.342s127.305,55.945,130.122,33.104c0,0,49.384-177.776-8.511-197.009
				C768.498,290.188,748.696,282.902,746.968,283.651z"/>
			<path style="fill:#FFFFFF;" d="M753.9,284.944c-16.183,21.934-32.05,48.259-48.479,70.012
				c-9.734,12.889-13.588,27.94-18.324,43.085c-4.708,15.057-9.416,30.114-14.125,45.171c-1.989,6.362-3.979,12.723-5.968,19.085
				l54.107,19.811c1.452-19.309,2.428-38.656,4.238-57.935c1.669-17.781,2.459-38.017,9.948-54.483
				c3.645-8.015,7.413-15.993,11.1-23.996c6.763-14.683,12.02-30.127,18.912-44.751c0.482-1.022,1.577-10.34,1.507-11.504
				L753.9,284.944z"/>
			<g>
				<path style="fill:#EACDB0;" d="M752.577,288.163c4.464,0.729,8.929,1.457,13.393,2.186c0.972-3.474,1.665-7.026,2.072-10.611
					c3.965-0.308,8.664-1.102,10.306-4.724c0.517-1.141,0.636-2.416,0.748-3.664c0.463-5.158,0.926-10.315,1.388-15.473
					c0.16-1.784,0.315-3.623-0.223-5.331c-0.944-2.998-3.803-4.962-6.656-6.279c-7.282-3.362-16.043-3.926-23.296-0.504
					c-1.93,0.911-3.782,2.131-4.994,3.887c-1.869,2.708-1.949,6.225-1.962,9.516c-0.012,3.038-0.023,6.076-0.035,9.113
					c-0.013,3.494,0.235,7.536,3.054,9.599c1.497,1.095,3.52,1.431,4.776,2.797C753.364,281.083,751.947,284.953,752.577,288.163z"
					/>
				<polygon style="fill:#3A3029;" points="737.074,249.197 743.573,267.094 743.779,251.429 				"/>
				<path style="fill:#3A3029;" d="M723.141,227.58c0.812-3.405,2.195-6.701,3.689-9.605c2.567-4.992,9.451-5.715,14.963-4.656
					c11.904,2.289,24.591-0.018,34.921,7.099c5.905,4.069,14.519,6.954,19.55,11.817c2.101,2.03,3.497,4.701,4.399,7.479
					c3.126,9.628,0.137,20.955-7.332,27.787c-1.676,1.533-3.542,2.844-5.46,4.061c-3.969,2.518-8.752,5.66-13.317,5.768
					c0.909-3.816,7.546-14.842,5.465-18.723c-3.304-6.159-14.202-7.224-20.254-7.538c-6.601-0.343-13.351,2.597-19.797,1.891
					c-4.639-0.508-9.745-4.211-12.921-7.526C722.069,240.238,721.673,233.732,723.141,227.58z"/>
			</g>
			<polygon style="fill:#3A3029;" points="657.229,667.823 643.894,675.703 645.591,681.625 668.435,679.351 669.67,669.302 			"/>
		</g>
		<g>
			<g>
				<g>
					<path style="fill:#B24040;" d="M654.673,197.07c-0.836,5.047-4.653,8.944-8.456,12.16
						c-25.303,21.394-75.728,38.392-100.432,13.404c3.495,0.228,12.144,2.527,19.339,2.802c17.085,0.654,31.899-13.18,44.397-25.814
						c7.662-7.745,15.538-33.435,26.86-34.329C647.186,164.439,656.339,187.005,654.673,197.07z"/>
					<path style="fill:#C14C4A;" d="M559.295,188.516c11.116-13.478,21.022-21.399,33.555-29.912
						c12.533-8.513,27.907-13.466,42.229-9.976c1.702,0.415,3.428,0.973,4.761,2.154c1.523,1.35,2.362,3.355,3.153,5.29
						c4.37,10.691,14.089,25.961,12.022,38.866c-24.221-8.447-52.381-6.409-76.39,3.633c-17.923,7.496-32.118,25.879-33.715,25.457
						C529.71,220.007,554.064,194.858,559.295,188.516z"/>
				</g>
				<g>
					<path style="fill:#B24040;" d="M448.228,167.551c-0.783,5.056,1.626,9.95,4.235,14.193
						c17.354,28.227,59.945,60.127,91.219,44.106c-3.392-0.876-12.326-1.394-19.247-3.38c-16.434-4.716-26.185-22.485-34.112-38.391
						c-4.859-9.751-4.316-36.616-14.792-41.002C465.534,138.892,449.79,157.469,448.228,167.551z"/>
					<path style="fill:#C14C4A;" d="M541.505,189.22c-6.349-16.276-13.285-26.896-22.531-38.898
						c-9.246-12.002-22.304-21.51-37-22.668c-1.746-0.138-3.561-0.147-5.196,0.559c-1.868,0.806-3.292,2.449-4.648,4.04
						c-7.491,8.791-21.494,20.261-23.561,33.165c25.648-0.458,51.761,10.275,71.432,27.314
						c14.685,12.72,22.426,34.617,24.075,34.715C559.772,228.378,544.493,196.879,541.505,189.22z"/>
				</g>
			</g>
			<g>
				
					<rect x="376.684" y="224.394" transform="matrix(0.9874 0.1582 -0.1582 0.9874 62.1875 -78.944)" style="fill:#FDE18D;" width="300.654" height="253.577"/>
				
					<rect x="371.122" y="225.587" transform="matrix(0.9874 0.1582 -0.1582 0.9874 47.5735 -82.4937)" style="fill:#F9CD5F;" width="341.761" height="64.035"/>
			</g>
			<polygon style="opacity:0.1;" points="685.372,312.998 549.437,291.221 535.004,288.515 534.943,288.899 401.147,267.465 
				533.26,299.519 505.308,475.869 530.981,480.032 558.042,305.872 681.759,335.549 			"/>
			<path style="fill:#C14C4A;" d="M522.777,478.91l-36.741-5.886l40.614-253.519c0.412-2.57,2.754-4.332,5.231-3.935l27.771,4.449
				c2.477,0.397,4.151,2.802,3.74,5.372L522.777,478.91z"/>
		</g>
		<polygon style="opacity:0.1;" points="621.17,411.388 682.143,411.148 686.837,381.846 625.066,397.752 		"/>
		<path style="fill:#ABC9D9;" d="M780.906,296.456c0,0-11.911,4.138-12.774,6.29c-0.862,2.152-41.121,65.137-41.121,65.137
			l-83.125,19.997l3.906,18.963l76.622-8.441l27.921-1.948l44.804-64.934l-1.488-22.844L780.906,296.456z"/>
		<polygon style="fill:#EACDB0;" points="644.546,391.908 627.014,391.908 615.326,403.596 621.17,411.388 647.462,405.238 		"/>
		<g>
			<g>
				<g>
					<polygon style="fill:#514943;" points="276.036,671.553 274.472,677.655 284.542,687.083 291.925,682.645 287.672,674.88 
						277.601,665.451 					"/>
					<polygon style="fill:#6B5848;" points="304.993,482.134 300.241,500.665 307.31,567.877 275.932,669.413 286.851,675.133 
						332.585,578.289 341.873,549.508 351.153,487.007 					"/>
				</g>
				<g>
					<polygon style="fill:#6B5848;" points="390.107,499.573 383.119,677.223 372.032,678.324 358.883,566.201 330.876,489.368 
											"/>
					<polygon style="fill:#514943;" points="371.959,676.932 372.584,683.226 385.197,688.33 390.566,681.44 383.947,675.742 					
						"/>
				</g>
				<g>
					<path style="fill:#F6A29F;" d="M296.647,462.128c9.515-62.528,6.117-108.065,6.61-120.569
						c0.493-12.504,9.269-18.992,9.273-18.994c3.851-0.858,7.202-3.337,11.092-4.316c26.308-6.619,40.658,13.469,50.506,35.135
						c12.134,26.695,22.328,54.28,30.57,82.42c7.233,24.697,14.482,49.617,17.516,75.247c1.252,10.576,2.296,20.605-9.283,25.27
						c-18.451,7.434-39.185,7.272-58.673,9.656c-22.385,2.738-44.801,4.739-67.335,5.676
						C275.159,552.142,287.132,524.657,296.647,462.128z"/>
				</g>
			</g>
			<path style="fill:#FFF5CC;" d="M318.24,320.557c0,0,0.829,19.697,12.648,20.319c11.818,0.622,18.66-4.976,18.038-11.818
				c-0.622-6.842-4.003-9.989-4.003-9.989S330.473,312.678,318.24,320.557z"/>
			<polygon style="fill:#F6A29F;" points="418.498,316.324 384.513,358.365 320.448,328.661 304.354,332.174 303.666,340.231 
				306.163,361.128 387.33,390.348 406.81,380.608 432.783,322.168 			"/>
			<g>
				<path style="fill:#563E2E;" d="M360.122,301.068c-6.301-2.94-8.63-8.866-9.48-12.406c-0.142-1-0.302-1.946-0.476-2.84
					l-0.001-0.016c0,0-0.001,0.005-0.001,0.007c-2.428-12.455-7.655-14.937-7.655-14.937l-0.004,0.001
					c-1.84-1.504-3.998-2.616-6.307-3.174c-3.549,3.19-5.764,7.823-6.02,12.593l-0.52,0.006c2.174,0.052,4.316,0.55,6.31,1.405
					c1.522,10.758,3.84,27.877,3.924,32.876c0.125,7.463,1.889,7.601,6.906,9.237c3.121,1.017,6.348-0.222,8.343-1.304h0.001
					C361.984,320.949,369.452,305.422,360.122,301.068z"/>
				<g>
					<path style="fill:#EACDB0;" d="M345.274,285.82c-7.885-17.174-29.59-8.476-32.413,7.72c-1.605,9.21,3.28,25.215,14.276,25.365
						c0.554,1.556,1.504,4.496,2.986,5.26c1.606,0.828,5.487-1.305,7.021-2.087c0.425-0.217,0.865-0.464,1.111-0.874
						c0.307-0.513,0.103-1.631-0.193-2.853c1.175-0.378,2.341-0.916,3.485-1.635c4.801-3.018,7.384-8.807,7.637-14.48
						C349.436,296.562,347.643,290.981,345.274,285.82z"/>
				</g>
				<path style="fill:#563E2E;" d="M330.586,282.796c12.388-4.466,8.845-14.154,8.845-14.154
					c-10.151-14.568-31.866-5.108-31.866-5.108s-11.34,6.241-13.481,19.771c-0.194,1.229-0.339,2.384-0.446,3.478
					c-0.476,3.431-0.922,10.729-0.654,14.298c0.035,4.363-0.261,7.661-3.46,11.756c-5.845,7.482,1.296,10.785,4.178,12.986
					c2.883,2.201-2.765,19.093,18.603,12.724c13.951-7.2,17.221-7.226,12.055-14.806l0,0c-2.205-3.662-7.24-8.656-9.522-15.151
					C311.239,298.344,318.198,287.262,330.586,282.796z"/>
			</g>
			<polygon style="fill:#EACDB0;" points="420.068,316.966 425.641,305.935 438.627,303.987 438.627,319.571 431.3,321.561 			"/>
		</g>
		<g>
			<g>
				<polygon style="fill:#363636;" points="90.909,673.298 89.95,681.242 104.88,691.103 113.782,684.117 106.797,675.215 
					91.867,665.354 				"/>
				<polygon style="fill:#514943;" points="94.883,430.49 91.972,454.616 111.527,563.042 90.386,670.638 105.763,675.691 
					158.183,548.273 161.663,509.085 156.416,427.671 				"/>
			</g>
			<g>
				<polygon style="fill:#514943;" points="202.663,438.646 203.844,540.775 184.598,672.457 169.799,672.457 160.453,550.953 
					140.202,429.449 				"/>
				<polygon style="fill:#363636;" points="185.887,670.695 169.885,670.695 169.885,678.697 185.887,686.698 193.889,678.697 				
					"/>
			</g>
			<path style="fill:#59595B;" d="M92.904,458.18c-0.204,9.318,0.089,21.876,3.668,22.335c0.671,0.086,1.314-0.245,1.9-0.565
				c6.19-3.38,10.57-8.136,16.671-11.402c6.395-3.422,13.711-5.241,20.886-6.514c10.729-1.96,21.695-3.176,32.626-3.367
				c11.869-0.207,34.975,2.128,34.975,2.128c6.671-1.121,13.045-3.419,19.435-5.551c10.979-3.661,22.192-6.887,32.494-12.016
				c3.306-1.646,12.426-6.509,9.166-10.911c-2.468-3.333-10.85-5.564-14.628-7.612c-8.438-4.574-16.549-9.794-23.691-16.064
				c-10.151-8.911-17.641-19.843-22.329-32.155c-2.367-6.215-4.073-12.638-5.482-19.102c-0.763-3.501-1.433-7.021-2.061-10.546
				c-0.357-2.002-0.352-9.575-1.816-10.832c-14.838-12.748-19.203-23.919-37.169-21.137c-40.994,6.346-38.089,8.165-47.235,28.253
				c-3.678,8.078-8.663,29.766-10.069,38.449c-1.703,10.517-3.279,21.054-4.506,31.631c-1.369,11.803-2.308,23.66-2.507,35.535
				C93.21,450.057,93.001,453.753,92.904,458.18z"/>
			<g>
				<polygon style="fill:#2E4661;" points="128.79,294.832 112.997,326.537 193.306,349.711 195.703,328.535 				"/>
				<polygon style="fill:#2E4661;" points="170.355,300.269 151.73,306.387 122.615,329.313 119.28,461.583 172.419,453.992 
					160.033,341.72 188.113,324.712 195.703,315.75 				"/>
			</g>
			<g>
				<path style="fill:#EACDB0;" d="M156.712,309.223c-4.57-0.624-9.139-1.247-13.709-1.871c0.091-3.677,0.476-7.347,1.151-10.963
					c-3.773-1.485-8.116-3.664-8.635-7.685c-0.163-1.267,0.102-2.545,0.365-3.795c1.09-5.166,2.18-10.333,3.27-15.499
					c0.377-1.787,0.776-3.626,1.811-5.131c1.816-2.64,5.19-3.7,8.365-4.132c8.103-1.101,16.812,0.966,22.861,6.47
					c1.61,1.465,3.05,3.207,3.707,5.282c1.013,3.199,0.04,6.65-0.931,9.862c-0.896,2.965-1.793,5.93-2.689,8.894
					c-1.031,3.41-2.48,7.276-5.846,8.445c-1.787,0.621-3.859,0.344-5.491,1.299C158.06,302.086,158.285,306.282,156.712,309.223z"/>
				<path style="fill:#9E6652;" d="M205.09,259.082c0.839-1.269,1.737-2.491,2.733-3.631c2.159-2.469,4.783-4.557,6.548-7.321
					c1.765-2.764,2.491-6.572,0.594-9.247c-1.225-1.726-3.281-2.643-5.288-3.315c-6.613-2.214-13.824-2.613-20.642-1.143
					c-6.493,1.4-12.351,3.9-18.738,1.243c-6.001-2.496-10.43-1.733-16.873,0.302c-6.972,2.202-16.232,2.441-22.589,5.678
					c-2.655,1.352-4.814,3.537-6.524,5.977c-5.924,8.451-6.395,20.387-1.155,29.278c1.176,1.995,2.603,3.831,4.109,5.59
					c3.117,3.641,6.84,8.133,11.258,9.602c0.254-3.991-2.922-16.723,0.267-19.885c5.061-5.017,16.004-2.799,21.997-1.297
					c6.538,1.638,12.238,6.521,18.734,7.758c4.674,0.891,10.758-1.194,14.845-3.476C199.411,272.377,202.03,263.715,205.09,259.082z
					"/>
			</g>
		</g>
		<g>
			<polygon style="fill:#B99A6F;" points="842.016,281.344 837.916,273.906 840.122,266.719 838.84,265.486 837.25,267.012 
				837.377,260.531 834.104,256.432 827.117,256.831 821.654,261.595 822.748,268.492 827.979,274.92 833.149,285.347 			"/>
			<path style="fill:#E4E4E4;" d="M840.201,272.722c-0.975,0.194,17.882,28.534,21.895,30.739
				c13.027,7.156,35.404,2.444,49.459,1.568c2.9-0.181,6.07-0.251,8.395,1.492c2.351,1.763,3.183,5.012,2.814,7.927
				c-0.369,2.916-1.74,5.596-3.088,8.207c-4.221,8.171-7.82,16.092-14.109,22.809c-3.422,3.655-14.559,17.425-18.802,17.645
				c-0.617,0.033-1.165-0.365-1.653-0.745c-13.262-10.324-25.788-21.594-37.451-33.695c-12.136-12.591-13.03-19.298-16.232-35.832
				c-0.232-1.197-3.317-17.413-3.68-17.332C827.765,275.503,840.188,272.724,840.201,272.722z"/>
		</g>
		<g>
			<g>
				<polygon style="fill:#B99A6F;" points="990.587,665.01 991.49,671.294 979.23,679.472 971.746,674.136 977.424,666.905 
					989.684,658.727 				"/>
				<polygon style="fill:#83A296;" points="984.012,472.356 969.182,492.788 971.985,577.971 990.985,662.886 978.288,667.258 
					933.056,567.344 929.639,536.317 932.896,471.565 				"/>
			</g>
			<g>
				<polygon style="fill:#83A296;" points="886.32,487.367 891.642,568.228 915.718,671.263 927.983,670.392 928.232,573.724 
					937.519,476.414 				"/>
				<polygon style="fill:#B99A6F;" points="927.804,669.004 914.541,669.946 908.403,676.747 915.528,682.606 928.297,675.333 				
					"/>
			</g>
		</g>
		<path style="fill:#E4E4E4;" d="M939.344,301.375h33.6l42.842,55.118l-23.242,171.796c0,0-68.57,4.667-118.971-4.083
			c0,0-14.03-33.833,0.638-120.748c5.743-34.03,17.856-78.749,19.769-80.499C909.343,308.906,933.469,302.905,939.344,301.375z"/>
		<g>
			<path style="fill:#B99A6F;" d="M977.676,264.515c-7.451-19.725-37.054-25.532-42.948-2.035
				c-1.771,7.061-2.71,14.515-1.033,21.599c1.677,7.084,6.335,13.761,13.145,16.423c0.039,0.015,0.078,0.028,0.117,0.043
				c-0.188,1.863-0.376,3.726-0.563,5.589c-0.04,0.4-0.07,0.841,0.168,1.166c0.272,0.37,0.784,0.45,1.242,0.499
				c2.237,0.243,4.473,0.485,6.71,0.728c1.109,0.12,2.263,0.235,3.311-0.144c2.294-0.831,3.15-3.638,3.155-6.066
				c0.001-0.58-0.028-1.166-0.06-1.753C973.901,295.563,982.547,277.409,977.676,264.515z"/>
			<g>
				<path style="fill:#483D3F;" d="M934.377,233.43c-5.433-0.001-9.194,5.794-13.697,9.211c-3.746,2.842-8.283,4.119-12.235,6.6
					c-3.952,2.481-7.53,6.969-6.895,11.832c-4.617-1.585-9.599-3.174-14.264-1.544c-4.665,1.63-8.271,7.991-5.656,12.409
					c2.342,3.956,8.011,4.132,10.466,8.003c3.885,6.124-2.451,17.464,3.559,21.019c1.445,0.855,3.236,0.848,4.663,1.737
					c1.773,1.104,2.62,3.324,3.625,5.261c4.555,8.779,14.831,13.436,23.905,10.832c5.356-3.533,9.118-9.753,10.228-16.401
					c1.337-8.013-3.176-10.075-4.942-17.151c-1.93-7.733-0.663-16.412,3.394-23.238c2.64-4.442,6.753-8.543,11.571-9.728
					c1.959-0.482,1.58,1.259,3.586-0.6c0.861-0.798,1.799-3.472,1.894-4.702C947.595,243.482,941.526,233.431,934.377,233.43z"/>
				<path style="fill:#483D3F;" d="M993.388,235.107c2.856,0.354,5.817-0.197,8.599,0.557c4.18,1.132,4.547,5.217,6.183,8.572
					c1.811,3.714,4.38,8.68,7.416,11.328c2.188,1.909,4.98,2.768,7.499,4.118c2.52,1.35,4.976,3.529,5.382,6.573
					c0.384,2.884-1.175,5.756-1.031,8.671c0.293,4.336,1.366,6.419,0.692,10.995c-0.348,2.361-0.757,4.867-2.232,6.66
					c-1.944,2.363-5.151,2.796-8.031,2.744c-2.88-0.052-5.902-0.398-8.535,0.939c-5.711,2.899-3.686,8.78-4.529,14.084
					c-1.283,8.071-9.602,13.901-16.89,12.175c-6.179-1.464-10.561-7.7-11.291-14.388c-0.365-3.348,0.504-6.647,0.103-9.993
					c-0.387-3.227-2.872-7.408-0.325-10.391c0.621-0.726,1.486-1.189,2.021-1.992c0.433-0.649,0.606-1.459,0.671-2.251
					c0.227-2.748-0.793-5.557-2.671-7.358c-1.35-1.294-3.13-2.122-4.087-3.783c-1.096-1.902-0.82-4.358-1.019-6.61
					c-0.481-5.445-4.239-10.298-9.07-11.714c-3.183-0.933-5.988-1.347-8.904-3.051c-0.444-0.259-7.145-4.59-7.129-3.443
					c-0.026-1.997,0.867-3.88,1.797-5.623c1.528-2.866,3.278-5.696,5.744-7.641c7.971-6.29,10.129,5.273,16.898,2.71
					c1.633-0.618,2.674-2.345,4.057-3.488c2.611-2.159,6.229-2.06,9.359-1.193C987.195,233.18,990.172,234.709,993.388,235.107z"/>
			</g>
		</g>
		<g>
			<g>
				<g>
					<path style="fill:#558AB2;" d="M285.499,333.065c0.452,3.364-1.211,6.579-2.998,9.359
						c-11.887,18.494-40.565,39.088-61.097,28.045c2.262-0.536,8.195-0.76,12.812-1.986c10.964-2.91,17.669-14.567,23.139-25.013
						c3.353-6.404,3.35-24.232,10.358-27.002C274.401,313.824,284.598,326.357,285.499,333.065z"/>
					<path style="fill:#6194C1;" d="M223.335,346.198c4.428-10.712,9.171-17.664,15.464-25.503
						c6.293-7.839,15.081-13.972,24.845-14.545c1.16-0.068,2.364-0.05,3.439,0.44c1.228,0.56,2.151,1.669,3.029,2.742
						c4.852,5.931,13.989,13.726,15.188,22.314c-17.007-0.645-34.473,6.128-47.748,17.169c-9.91,8.242-15.337,22.665-16.432,22.708
						C210.697,371.931,221.251,351.239,223.335,346.198z"/>
				</g>
				<g>
					<path style="fill:#558AB2;" d="M148.805,354.513c0.487,3.359,2.968,5.995,5.448,8.179c16.5,14.528,49.724,26.475,66.444,10.227
						c-2.322,0.105-8.09,1.515-12.866,1.601c-11.342,0.206-20.985-9.167-29.108-17.714c-4.98-5.24-9.863-22.386-17.361-23.13
						C154.206,332.966,147.833,347.814,148.805,354.513z"/>
					<path style="fill:#6194C1;" d="M212.188,350.107c-7.194-9.089-13.661-14.475-21.861-20.289
						c-8.2-5.814-18.333-9.304-27.88-7.179c-1.135,0.253-2.287,0.6-3.187,1.366c-1.028,0.875-1.612,2.194-2.162,3.467
						c-3.041,7.034-9.691,17.034-8.492,25.622c16.18-5.281,34.832-3.554,50.625,3.426c11.79,5.211,20.961,17.594,22.026,17.335
						C231.395,371.391,215.574,354.384,212.188,350.107z"/>
				</g>
			</g>
			<g>
				
					<rect x="134.77" y="371.54" transform="matrix(0.9904 -0.1384 0.1384 0.9904 -60.7883 36.8282)" style="fill:#FDE18D;" width="199.481" height="168.246"/>
				
					<rect x="112.433" y="372.144" transform="matrix(0.9904 -0.1384 0.1384 0.9904 -52.256 35.0257)" style="fill:#F9CD5F;" width="226.755" height="42.486"/>
			</g>
			<g style="opacity:0.1;">
				<polygon points="138.382,427.051 327.531,400.627 329.627,415.634 				"/>
			</g>
			<path style="fill:#6194C1;" d="M256.678,537.506l-24.451,3.416l-23.569-168.714c-0.239-1.71,0.904-3.283,2.552-3.514
				l18.482-2.582c1.648-0.23,3.178,0.97,3.417,2.68L256.678,537.506z"/>
		</g>
		<g>
			<g>
				<g>
					<path style="fill:#F9CD5F;" d="M906.317,317.124c0.344,2.556-0.92,4.998-2.277,7.11c-9.031,14.05-30.818,29.696-46.417,21.306
						c1.718-0.407,6.226-0.578,9.734-1.509c8.33-2.211,13.424-11.067,17.579-19.003c2.547-4.865,2.545-18.409,7.869-20.514
						C897.885,302.506,905.632,312.027,906.317,317.124z"/>
					<path style="fill:#FDE18D;" d="M859.089,327.102c3.364-8.138,6.967-13.42,11.748-19.375
						c4.781-5.955,11.458-10.615,18.875-11.05c0.882-0.052,1.796-0.038,2.613,0.334c0.933,0.425,1.634,1.268,2.301,2.083
						c3.686,4.506,10.628,10.428,11.539,16.952c-12.921-0.49-26.19,4.655-36.275,13.043c-7.529,6.262-11.652,17.219-12.484,17.252
						C849.488,346.651,857.506,330.931,859.089,327.102z"/>
				</g>
				<g>
					<path style="fill:#F9CD5F;" d="M802.467,333.418c0.37,2.552,2.255,4.555,4.139,6.214c12.536,11.037,37.776,20.114,50.479,7.77
						c-1.764,0.079-6.146,1.151-9.775,1.217c-8.617,0.157-15.943-6.965-22.114-13.458c-3.783-3.981-7.493-17.007-13.19-17.572
						C806.57,317.049,801.729,328.329,802.467,333.418z"/>
					<path style="fill:#FDE18D;" d="M850.621,330.071c-5.466-6.905-10.378-10.997-16.608-15.414
						c-6.23-4.417-13.928-7.069-21.181-5.454c-0.862,0.192-1.738,0.456-2.421,1.037c-0.781,0.665-1.224,1.667-1.643,2.634
						c-2.31,5.344-7.363,12.941-6.451,19.465c12.292-4.012,26.463-2.7,38.461,2.603c8.957,3.959,15.925,13.367,16.734,13.17
						C865.212,346.241,853.193,333.32,850.621,330.071z"/>
				</g>
			</g>
			<g>
				
					<rect x="791.804" y="346.354" transform="matrix(0.9904 -0.1384 0.1384 0.9904 -48.4186 123.9808)" style="fill:#B24040;" width="151.549" height="127.819"/>
				
					<rect x="774.835" y="346.813" transform="matrix(0.9904 -0.1384 0.1384 0.9904 -41.9363 122.6113)" style="fill:#C14C4A;" width="172.27" height="32.278"/>
			</g>
			<g style="opacity:0.1;">
				<polygon points="794.549,388.526 938.248,368.452 939.841,379.853 				"/>
			</g>
			<path style="fill:#FDE18D;" d="M884.421,472.441l-18.576,2.595l-17.906-128.175c-0.182-1.299,0.686-2.495,1.939-2.669
				l14.041-1.961c1.252-0.175,2.415,0.737,2.596,2.036L884.421,472.441z"/>
		</g>
		<g>
			<polygon style="fill:#B99A6F;" points="956.266,403.114 950.029,408.906 942.513,408.532 941.625,410.076 943.491,411.241 
				937.164,412.707 933.971,416.881 936.045,423.548 941.992,427.671 948.43,424.921 953.413,418.28 962.296,410.718 			"/>
			<path style="fill:#E4E4E4;" d="M948.327,406.985c7.761-5.49,13.455-12.47,21.24-18.023c1.397-0.996,2.87-1.984,4.558-2.306
				c3.578-0.683,6.987,1.771,9.441,4.45c9.992,10.912-5.61,15.714-13.575,19.442c-1.107,0.518-16.119,7.48-15.952,7.812
				C954.031,418.345,948.327,406.985,948.327,406.985z"/>
		</g>
		<g>
			<polygon style="fill:#EACDB0;" points="160.115,394.862 166.979,399.247 173.967,397.591 175.07,398.893 173.521,400.316 
				179.715,400.602 183.438,403.987 182.654,410.638 177.792,415.559 171.271,414.08 165.437,408.678 155.782,403.083 			"/>
			<polygon style="fill:#59595B;" points="166.353,397.094 126.557,373.015 130.769,337.791 114.555,321.997 87.595,381.331 
				161.914,412.345 			"/>
		</g>
	</g>
</g>
</svg>
